<?xml version="1.0" encoding="UTF-8" standalone="no"?>
<!DOCTYPE svg PUBLIC "-//W3C//DTD SVG 1.1//EN"
 "http://www.w3.org/Graphics/SVG/1.1/DTD/svg11.dtd">
<!-- Generated by graphviz version 9.0.0 (20230911.1827)
 -->
<!-- Title: MetaClaw Pages: 1 -->
<svg width="1126pt" height="221pt"
 viewBox="0.00 0.00 1125.50 221.00" xmlns="http://www.w3.org/2000/svg" xmlns:xlink="http://www.w3.org/1999/xlink">
<g id="graph0" class="graph" transform="scale(1 1) rotate(0) translate(4 217)">
<title>MetaClaw</title>
<polygon fill="white" stroke="none" points="-4,4 -4,-217 1121.5,-217 1121.5,4 -4,4"/>
<!-- user -->
<g id="node1" class="node">
<title>user</title>
<ellipse fill="none" stroke="black" cx="111.12" cy="-33" rx="33.85" ry="18"/>
<text text-anchor="middle" x="111.12" y="-28.32" font-family="Helvetica,sans-Serif" font-size="14.00">User</text>
</g>
<!-- cli -->
<g id="node2" class="node">
<title>cli</title>
<path fill="none" stroke="black" d="M366.88,-51C366.88,-51 281.88,-51 281.88,-51 275.88,-51 269.88,-45 269.88,-39 269.88,-39 269.88,-27 269.88,-27 269.88,-21 275.88,-15 281.88,-15 281.88,-15 366.88,-15 366.88,-15 372.88,-15 378.88,-21 378.88,-27 378.88,-27 378.88,-39 378.88,-39 378.88,-45 372.88,-51 366.88,-51"/>
<text text-anchor="middle" x="324.38" y="-28.32" font-family="Helvetica,sans-Serif" font-size="14.00">MetaClaw CLI</text>
</g>
<!-- user&#45;&gt;cli -->
<g id="edge1" class="edge">
<title>user&#45;&gt;cli</title>
<path fill="none" stroke="black" d="M145.13,-33C175.31,-33 220.83,-33 258.31,-33"/>
<polygon fill="black" stroke="black" points="258.14,-36.5 268.14,-33 258.14,-29.5 258.14,-36.5"/>
</g>
<!-- compiler -->
<g id="node5" class="node">
<title>compiler</title>
<path fill="none" stroke="black" d="M522.38,-155C522.38,-155 468.12,-155 468.12,-155 462.12,-155 456.12,-149 456.12,-143 456.12,-143 456.12,-131 456.12,-131 456.12,-125 462.12,-119 468.12,-119 468.12,-119 522.38,-119 522.38,-119 528.38,-119 534.38,-125 534.38,-131 534.38,-131 534.38,-143 534.38,-143 534.38,-149 528.38,-155 522.38,-155"/>
<text text-anchor="middle" x="495.25" y="-132.32" font-family="Helvetica,sans-Serif" font-size="14.00">Compiler</text>
</g>
<!-- cli&#45;&gt;compiler -->
<g id="edge4" class="edge">
<title>cli&#45;&gt;compiler</title>
<path fill="none" stroke="black" d="M373.68,-51.45C379.45,-54.11 385.18,-56.98 390.5,-60 416.61,-74.8 443.77,-95.17 463.75,-111.24"/>
<polygon fill="black" stroke="black" points="461.53,-113.95 471.5,-117.55 465.96,-108.52 461.53,-113.95"/>
</g>
<!-- resolver -->
<g id="node7" class="node">
<title>resolver</title>
<path fill="none" stroke="black" d="M552,-59C552,-59 438.5,-59 438.5,-59 432.5,-59 426.5,-53 426.5,-47 426.5,-47 426.5,-35 426.5,-35 426.5,-29 432.5,-23 438.5,-23 438.5,-23 552,-23 552,-23 558,-23 564,-29 564,-35 564,-35 564,-47 564,-47 564,-53 558,-59 552,-59"/>
<text text-anchor="middle" x="495.25" y="-36.33" font-family="Helvetica,sans-Serif" font-size="14.00">Runtime Resolver</text>
</g>
<!-- cli&#45;&gt;resolver -->
<g id="edge6" class="edge">
<title>cli&#45;&gt;resolver</title>
<path fill="none" stroke="black" d="M379.27,-35.55C390.54,-36.09 402.64,-36.66 414.61,-37.23"/>
<polygon fill="black" stroke="black" points="414.36,-40.72 424.51,-37.7 414.69,-33.73 414.36,-40.72"/>
</g>
<!-- state -->
<g id="node10" class="node">
<title>state</title>
<path fill="none" stroke="black" d="M1105.5,-36C1105.5,-36 1000.25,-36 1000.25,-36 994.25,-36 988.25,-30 988.25,-24 988.25,-24 988.25,-12 988.25,-12 988.25,-6 994.25,0 1000.25,0 1000.25,0 1105.5,0 1105.5,0 1111.5,0 1117.5,-6 1117.5,-12 1117.5,-12 1117.5,-24 1117.5,-24 1117.5,-30 1111.5,-36 1105.5,-36"/>
<text text-anchor="middle" x="1052.88" y="-13.32" font-family="Helvetica,sans-Serif" font-size="14.00">SQLite + Events</text>
</g>
<!-- cli&#45;&gt;state -->
<g id="edge9" class="edge">
<title>cli&#45;&gt;state</title>
<path fill="none" stroke="black" d="M379.17,-20.98C394.39,-18.1 411.03,-15.44 426.5,-14 624.24,4.41 858.66,-5.53 976.41,-12.7"/>
<polygon fill="black" stroke="black" points="976.07,-16.19 986.26,-13.32 976.5,-9.2 976.07,-16.19"/>
</g>
<!-- claw -->
<g id="node3" class="node">
<title>claw</title>
<path fill="none" stroke="black" d="M347.38,-213C347.38,-213 301.38,-213 301.38,-213 295.38,-213 289.38,-207 289.38,-201 289.38,-201 289.38,-189 289.38,-189 289.38,-183 295.38,-177 301.38,-177 301.38,-177 347.38,-177 347.38,-177 353.38,-177 359.38,-183 359.38,-189 359.38,-189 359.38,-201 359.38,-201 359.38,-207 353.38,-213 347.38,-213"/>
<text text-anchor="middle" x="324.38" y="-190.32" font-family="Helvetica,sans-Serif" font-size="14.00">Clawfile</text>
</g>
<!-- claw&#45;&gt;compiler -->
<g id="edge2" class="edge">
<title>claw&#45;&gt;compiler</title>
<path fill="none" stroke="black" d="M359.55,-183.26C384.14,-174.82 417.67,-163.3 445.12,-153.87"/>
<polygon fill="black" stroke="black" points="445.95,-157.29 454.27,-150.73 443.68,-150.67 445.95,-157.29"/>
</g>
<!-- skill -->
<g id="node4" class="node">
<title>skill</title>
<path fill="none" stroke="black" d="M374.75,-159C374.75,-159 274,-159 274,-159 268,-159 262,-153 262,-147 262,-147 262,-135 262,-135 262,-129 268,-123 274,-123 274,-123 374.75,-123 374.75,-123 380.75,-123 386.75,-129 386.75,-135 386.75,-135 386.75,-147 386.75,-147 386.75,-153 380.75,-159 374.75,-159"/>
<text text-anchor="middle" x="324.38" y="-136.32" font-family="Helvetica,sans-Serif" font-size="14.00">Skill + Contract</text>
</g>
<!-- skill&#45;&gt;compiler -->
<g id="edge3" class="edge">
<title>skill&#45;&gt;compiler</title>
<path fill="none" stroke="black" d="M386.82,-139.54C405.7,-139.1 426.23,-138.61 444.25,-138.18"/>
<polygon fill="black" stroke="black" points="444.25,-141.69 454.16,-137.95 444.08,-134.69 444.25,-141.69"/>
</g>
<!-- capsule -->
<g id="node6" class="node">
<title>capsule</title>
<path fill="none" stroke="black" d="M717.25,-155C717.25,-155 669.75,-155 669.75,-155 663.75,-155 657.75,-149 657.75,-143 657.75,-143 657.75,-131 657.75,-131 657.75,-125 663.75,-119 669.75,-119 669.75,-119 717.25,-119 717.25,-119 723.25,-119 729.25,-125 729.25,-131 729.25,-131 729.25,-143 729.25,-143 729.25,-149 723.25,-155 717.25,-155"/>
<text text-anchor="middle" x="693.5" y="-132.32" font-family="Helvetica,sans-Serif" font-size="14.00">Capsule</text>
</g>
<!-- compiler&#45;&gt;capsule -->
<g id="edge5" class="edge">
<title>compiler&#45;&gt;capsule</title>
<path fill="none" stroke="black" d="M534.55,-137C566.39,-137 611.8,-137 645.76,-137"/>
<polygon fill="black" stroke="black" points="645.75,-140.5 655.75,-137 645.75,-133.5 645.75,-140.5"/>
</g>
<!-- runtimes -->
<g id="node8" class="node">
<title>runtimes</title>
<path fill="none" stroke="black" d="M775,-59C775,-59 612,-59 612,-59 606,-59 600,-53 600,-47 600,-47 600,-35 600,-35 600,-29 606,-23 612,-23 612,-23 775,-23 775,-23 781,-23 787,-29 787,-35 787,-35 787,-47 787,-47 787,-53 781,-59 775,-59"/>
<text text-anchor="middle" x="693.5" y="-36.33" font-family="Helvetica,sans-Serif" font-size="14.00">Apple | Podman | Docker</text>
</g>
<!-- resolver&#45;&gt;runtimes -->
<g id="edge7" class="edge">
<title>resolver&#45;&gt;runtimes</title>
<path fill="none" stroke="black" d="M564.34,-41C572.09,-41 580.12,-41 588.2,-41"/>
<polygon fill="black" stroke="black" points="588.13,-44.5 598.13,-41 588.13,-37.5 588.13,-44.5"/>
</g>
<!-- container -->
<g id="node9" class="node">
<title>container</title>
<path fill="none" stroke="black" d="M940.25,-59C940.25,-59 835,-59 835,-59 829,-59 823,-53 823,-47 823,-47 823,-35 823,-35 823,-29 829,-23 835,-23 835,-23 940.25,-23 940.25,-23 946.25,-23 952.25,-29 952.25,-35 952.25,-35 952.25,-47 952.25,-47 952.25,-53 946.25,-59 940.25,-59"/>
<text text-anchor="middle" x="887.62" y="-36.33" font-family="Helvetica,sans-Serif" font-size="14.00">Agent Container</text>
</g>
<!-- runtimes&#45;&gt;container -->
<g id="edge8" class="edge">
<title>runtimes&#45;&gt;container</title>
<path fill="none" stroke="black" d="M787.47,-41C795.45,-41 803.46,-41 811.27,-41"/>
<polygon fill="black" stroke="black" points="811.05,-44.5 821.05,-41 811.05,-37.5 811.05,-44.5"/>
</g>
<!-- container&#45;&gt;state -->
<g id="edge10" class="edge">
<title>container&#45;&gt;state</title>
<path fill="none" stroke="black" d="M952.68,-31.98C960.57,-30.86 968.69,-29.72 976.73,-28.59"/>
<polygon fill="black" stroke="black" points="977.09,-32.07 986.51,-27.21 976.12,-25.14 977.09,-32.07"/>
</g>
<!-- ecosystem -->
<g id="node11" class="node">
<title>ecosystem</title>
<path fill="none" stroke="black" d="M210.25,-186C210.25,-186 12,-186 12,-186 6,-186 0,-180 0,-174 0,-174 0,-162 0,-162 0,-156 6,-150 12,-150 12,-150 210.25,-150 210.25,-150 216.25,-150 222.25,-156 222.25,-162 222.25,-162 222.25,-174 222.25,-174 222.25,-180 216.25,-186 210.25,-186"/>
<text text-anchor="middle" x="111.12" y="-163.32" font-family="Helvetica,sans-Serif" font-size="14.00">Examples / Skills / Nano&#45;QMD</text>
</g>
<!-- ecosystem&#45;&gt;claw -->
<g id="edge11" class="edge">
<title>ecosystem&#45;&gt;claw</title>
<path fill="none" stroke="black" d="M222.7,-182.13C242.14,-184.62 261.36,-187.07 277.71,-189.16"/>
<polygon fill="black" stroke="black" points="277.2,-192.63 287.57,-190.42 278.09,-185.68 277.2,-192.63"/>
</g>
<!-- ecosystem&#45;&gt;skill -->
<g id="edge12" class="edge">
<title>ecosystem&#45;&gt;skill</title>
<path fill="none" stroke="black" d="M222.7,-153.87C232.11,-152.67 241.46,-151.47 250.46,-150.32"/>
<polygon fill="black" stroke="black" points="250.67,-153.82 260.15,-149.08 249.79,-146.88 250.67,-153.82"/>
</g>
<!-- security -->
<g id="node12" class="node">
<title>security</title>
<path fill="none" stroke="black" d="M378.5,-105C378.5,-105 270.25,-105 270.25,-105 264.25,-105 258.25,-99 258.25,-93 258.25,-93 258.25,-81 258.25,-81 258.25,-75 264.25,-69 270.25,-69 270.25,-69 378.5,-69 378.5,-69 384.5,-69 390.5,-75 390.5,-81 390.5,-81 390.5,-93 390.5,-93 390.5,-99 384.5,-105 378.5,-105"/>
<text text-anchor="middle" x="324.38" y="-82.33" font-family="Helvetica,sans-Serif" font-size="14.00">Security Protocol</text>
</g>
<!-- security&#45;&gt;compiler -->
<g id="edge13" class="edge">
<title>security&#45;&gt;compiler</title>
<path fill="none" stroke="black" d="M387.78,-105.48C406.76,-111.1 427.35,-117.19 445.31,-122.51"/>
<polygon fill="black" stroke="black" points="444.08,-125.8 454.67,-125.28 446.07,-119.09 444.08,-125.8"/>
</g>
<!-- security&#45;&gt;container -->
<g id="edge14" class="edge">
<title>security&#45;&gt;container</title>
<path fill="none" stroke="black" d="M390.8,-88.88C480.66,-90.42 647.08,-89.56 787,-68 796.52,-66.53 806.44,-64.49 816.17,-62.18"/>
<polygon fill="black" stroke="black" points="816.71,-65.65 825.56,-59.84 815.02,-58.86 816.71,-65.65"/>
</g>
</g>
</svg>
