<?xml version="1.0" encoding="UTF-8" standalone="no"?>
<!DOCTYPE svg PUBLIC "-//W3C//DTD SVG 1.1//EN"
 "http://www.w3.org/Graphics/SVG/1.1/DTD/svg11.dtd">
<!-- Generated by graphviz version 9.0.0 (20230911.1827)
 -->
<!-- Title: MetaClaw Pages: 1 -->
<svg width="1222pt" height="221pt"
 viewBox="0.00 0.00 1221.50 221.00" xmlns="http://www.w3.org/2000/svg" xmlns:xlink="http://www.w3.org/1999/xlink">
<g id="graph0" class="graph" transform="scale(1 1) rotate(0) translate(4 217)">
<title>MetaClaw</title>
<polygon fill="white" stroke="none" points="-4,4 -4,-217 1217.5,-217 1217.5,4 -4,4"/>
<!-- user -->
<g id="node1" class="node">
<title>user</title>
<ellipse fill="none" stroke="black" cx="159.12" cy="-33" rx="33.85" ry="18"/>
<text text-anchor="middle" x="159.12" y="-28.32" font-family="Helvetica,sans-Serif" font-size="14.00">User</text>
</g>
<!-- cli -->
<g id="node2" class="node">
<title>cli</title>
<path fill="none" stroke="black" d="M462.88,-51C462.88,-51 377.88,-51 377.88,-51 371.88,-51 365.88,-45 365.88,-39 365.88,-39 365.88,-27 365.88,-27 365.88,-21 371.88,-15 377.88,-15 377.88,-15 462.88,-15 462.88,-15 468.88,-15 474.88,-21 474.88,-27 474.88,-27 474.88,-39 474.88,-39 474.88,-45 468.88,-51 462.88,-51"/>
<text text-anchor="middle" x="420.38" y="-28.32" font-family="Helvetica,sans-Serif" font-size="14.00">MetaClaw CLI</text>
</g>
<!-- user&#45;&gt;cli -->
<g id="edge1" class="edge">
<title>user&#45;&gt;cli</title>
<path fill="none" stroke="black" d="M193.22,-33C233.71,-33 303.17,-33 354.46,-33"/>
<polygon fill="black" stroke="black" points="354.25,-36.5 364.25,-33 354.25,-29.5 354.25,-36.5"/>
</g>
<!-- compiler -->
<g id="node5" class="node">
<title>compiler</title>
<path fill="none" stroke="black" d="M618.38,-155C618.38,-155 564.12,-155 564.12,-155 558.12,-155 552.12,-149 552.12,-143 552.12,-143 552.12,-131 552.12,-131 552.12,-125 558.12,-119 564.12,-119 564.12,-119 618.38,-119 618.38,-119 624.38,-119 630.38,-125 630.38,-131 630.38,-131 630.38,-143 630.38,-143 630.38,-149 624.38,-155 618.38,-155"/>
<text text-anchor="middle" x="591.25" y="-132.32" font-family="Helvetica,sans-Serif" font-size="14.00">Compiler</text>
</g>
<!-- cli&#45;&gt;compiler -->
<g id="edge4" class="edge">
<title>cli&#45;&gt;compiler</title>
<path fill="none" stroke="black" d="M469.68,-51.45C475.45,-54.11 481.18,-56.98 486.5,-60 512.61,-74.8 539.77,-95.17 559.75,-111.24"/>
<polygon fill="black" stroke="black" points="557.53,-113.95 567.5,-117.55 561.96,-108.52 557.53,-113.95"/>
</g>
<!-- resolver -->
<g id="node7" class="node">
<title>resolver</title>
<path fill="none" stroke="black" d="M648,-59C648,-59 534.5,-59 534.5,-59 528.5,-59 522.5,-53 522.5,-47 522.5,-47 522.5,-35 522.5,-35 522.5,-29 528.5,-23 534.5,-23 534.5,-23 648,-23 648,-23 654,-23 660,-29 660,-35 660,-35 660,-47 660,-47 660,-53 654,-59 648,-59"/>
<text text-anchor="middle" x="591.25" y="-36.33" font-family="Helvetica,sans-Serif" font-size="14.00">Runtime Resolver</text>
</g>
<!-- cli&#45;&gt;resolver -->
<g id="edge6" class="edge">
<title>cli&#45;&gt;resolver</title>
<path fill="none" stroke="black" d="M475.27,-35.55C486.54,-36.09 498.64,-36.66 510.61,-37.23"/>
<polygon fill="black" stroke="black" points="510.36,-40.72 520.51,-37.7 510.69,-33.73 510.36,-40.72"/>
</g>
<!-- state -->
<g id="node10" class="node">
<title>state</title>
<path fill="none" stroke="black" d="M1201.5,-36C1201.5,-36 1096.25,-36 1096.25,-36 1090.25,-36 1084.25,-30 1084.25,-24 1084.25,-24 1084.25,-12 1084.25,-12 1084.25,-6 1090.25,0 1096.25,0 1096.25,0 1201.5,0 1201.5,0 1207.5,0 1213.5,-6 1213.5,-12 1213.5,-12 1213.5,-24 1213.5,-24 1213.5,-30 1207.5,-36 1201.5,-36"/>
<text text-anchor="middle" x="1148.88" y="-13.32" font-family="Helvetica,sans-Serif" font-size="14.00">SQLite + Events</text>
</g>
<!-- cli&#45;&gt;state -->
<g id="edge9" class="edge">
<title>cli&#45;&gt;state</title>
<path fill="none" stroke="black" d="M475.17,-20.98C490.39,-18.1 507.03,-15.44 522.5,-14 720.24,4.41 954.66,-5.53 1072.41,-12.7"/>
<polygon fill="black" stroke="black" points="1072.07,-16.19 1082.26,-13.32 1072.5,-9.2 1072.07,-16.19"/>
</g>
<!-- claw -->
<g id="node3" class="node">
<title>claw</title>
<path fill="none" stroke="black" d="M443.38,-213C443.38,-213 397.38,-213 397.38,-213 391.38,-213 385.38,-207 385.38,-201 385.38,-201 385.38,-189 385.38,-189 385.38,-183 391.38,-177 397.38,-177 397.38,-177 443.38,-177 443.38,-177 449.38,-177 455.38,-183 455.38,-189 455.38,-189 455.38,-201 455.38,-201 455.38,-207 449.38,-213 443.38,-213"/>
<text text-anchor="middle" x="420.38" y="-190.32" font-family="Helvetica,sans-Serif" font-size="14.00">Clawfile</text>
</g>
<!-- claw&#45;&gt;compiler -->
<g id="edge2" class="edge">
<title>claw&#45;&gt;compiler</title>
<path fill="none" stroke="black" d="M455.55,-183.26C480.14,-174.82 513.67,-163.3 541.12,-153.87"/>
<polygon fill="black" stroke="black" points="541.95,-157.29 550.27,-150.73 539.68,-150.67 541.95,-157.29"/>
</g>
<!-- skill -->
<g id="node4" class="node">
<title>skill</title>
<path fill="none" stroke="black" d="M470.75,-159C470.75,-159 370,-159 370,-159 364,-159 358,-153 358,-147 358,-147 358,-135 358,-135 358,-129 364,-123 370,-123 370,-123 470.75,-123 470.75,-123 476.75,-123 482.75,-129 482.75,-135 482.75,-135 482.75,-147 482.75,-147 482.75,-153 476.75,-159 470.75,-159"/>
<text text-anchor="middle" x="420.38" y="-136.32" font-family="Helvetica,sans-Serif" font-size="14.00">Skill + Contract</text>
</g>
<!-- skill&#45;&gt;compiler -->
<g id="edge3" class="edge">
<title>skill&#45;&gt;compiler</title>
<path fill="none" stroke="black" d="M482.82,-139.54C501.7,-139.1 522.23,-138.61 540.25,-138.18"/>
<polygon fill="black" stroke="black" points="540.25,-141.69 550.16,-137.95 540.08,-134.69 540.25,-141.69"/>
</g>
<!-- capsule -->
<g id="node6" class="node">
<title>capsule</title>
<path fill="none" stroke="black" d="M813.25,-155C813.25,-155 765.75,-155 765.75,-155 759.75,-155 753.75,-149 753.75,-143 753.75,-143 753.75,-131 753.75,-131 753.75,-125 759.75,-119 765.75,-119 765.75,-119 813.25,-119 813.25,-119 819.25,-119 825.25,-125 825.25,-131 825.25,-131 825.25,-143 825.25,-143 825.25,-149 819.25,-155 813.25,-155"/>
<text text-anchor="middle" x="789.5" y="-132.32" font-family="Helvetica,sans-Serif" font-size="14.00">Capsule</text>
</g>
<!-- compiler&#45;&gt;capsule -->
<g id="edge5" class="edge">
<title>compiler&#45;&gt;capsule</title>
<path fill="none" stroke="black" d="M630.55,-137C662.39,-137 707.8,-137 741.76,-137"/>
<polygon fill="black" stroke="black" points="741.75,-140.5 751.75,-137 741.75,-133.5 741.75,-140.5"/>
</g>
<!-- runtimes -->
<g id="node8" class="node">
<title>runtimes</title>
<path fill="none" stroke="black" d="M871,-59C871,-59 708,-59 708,-59 702,-59 696,-53 696,-47 696,-47 696,-35 696,-35 696,-29 702,-23 708,-23 708,-23 871,-23 871,-23 877,-23 883,-29 883,-35 883,-35 883,-47 883,-47 883,-53 877,-59 871,-59"/>
<text text-anchor="middle" x="789.5" y="-36.33" font-family="Helvetica,sans-Serif" font-size="14.00">Apple | Podman | Docker</text>
</g>
<!-- resolver&#45;&gt;runtimes -->
<g id="edge7" class="edge">
<title>resolver&#45;&gt;runtimes</title>
<path fill="none" stroke="black" d="M660.34,-41C668.09,-41 676.12,-41 684.2,-41"/>
<polygon fill="black" stroke="black" points="684.13,-44.5 694.13,-41 684.13,-37.5 684.13,-44.5"/>
</g>
<!-- container -->
<g id="node9" class="node">
<title>container</title>
<path fill="none" stroke="black" d="M1036.25,-59C1036.25,-59 931,-59 931,-59 925,-59 919,-53 919,-47 919,-47 919,-35 919,-35 919,-29 925,-23 931,-23 931,-23 1036.25,-23 1036.25,-23 1042.25,-23 1048.25,-29 1048.25,-35 1048.25,-35 1048.25,-47 1048.25,-47 1048.25,-53 1042.25,-59 1036.25,-59"/>
<text text-anchor="middle" x="983.62" y="-36.33" font-family="Helvetica,sans-Serif" font-size="14.00">Agent Container</text>
</g>
<!-- runtimes&#45;&gt;container -->
<g id="edge8" class="edge">
<title>runtimes&#45;&gt;container</title>
<path fill="none" stroke="black" d="M883.47,-41C891.45,-41 899.46,-41 907.27,-41"/>
<polygon fill="black" stroke="black" points="907.05,-44.5 917.05,-41 907.05,-37.5 907.05,-44.5"/>
</g>
<!-- container&#45;&gt;state -->
<g id="edge10" class="edge">
<title>container&#45;&gt;state</title>
<path fill="none" stroke="black" d="M1048.68,-31.98C1056.57,-30.86 1064.69,-29.72 1072.73,-28.59"/>
<polygon fill="black" stroke="black" points="1073.09,-32.07 1082.51,-27.21 1072.12,-25.14 1073.09,-32.07"/>
</g>
<!-- ecosystem -->
<g id="node11" class="node">
<title>ecosystem</title>
<path fill="none" stroke="black" d="M306.25,-186C306.25,-186 12,-186 12,-186 6,-186 0,-180 0,-174 0,-174 0,-162 0,-162 0,-156 6,-150 12,-150 12,-150 306.25,-150 306.25,-150 312.25,-150 318.25,-156 318.25,-162 318.25,-162 318.25,-174 318.25,-174 318.25,-180 312.25,-186 306.25,-186"/>
<text text-anchor="middle" x="159.12" y="-163.32" font-family="Helvetica,sans-Serif" font-size="14.00">Examples / Skills / Third&#45;party Memory/Eval</text>
</g>
<!-- ecosystem&#45;&gt;claw -->
<g id="edge11" class="edge">
<title>ecosystem&#45;&gt;claw</title>
<path fill="none" stroke="black" d="M318.4,-184.48C338.59,-186.59 357.8,-188.59 373.95,-190.27"/>
<polygon fill="black" stroke="black" points="373.31,-193.72 383.62,-191.28 374.04,-186.76 373.31,-193.72"/>
</g>
<!-- ecosystem&#45;&gt;skill -->
<g id="edge12" class="edge">
<title>ecosystem&#45;&gt;skill</title>
<path fill="none" stroke="black" d="M318.4,-151.52C327.93,-150.52 337.24,-149.55 346.11,-148.63"/>
<polygon fill="black" stroke="black" points="346.42,-152.12 356,-147.6 345.7,-145.15 346.42,-152.12"/>
</g>
<!-- security -->
<g id="node12" class="node">
<title>security</title>
<path fill="none" stroke="black" d="M474.5,-105C474.5,-105 366.25,-105 366.25,-105 360.25,-105 354.25,-99 354.25,-93 354.25,-93 354.25,-81 354.25,-81 354.25,-75 360.25,-69 366.25,-69 366.25,-69 474.5,-69 474.5,-69 480.5,-69 486.5,-75 486.5,-81 486.5,-81 486.5,-93 486.5,-93 486.5,-99 480.5,-105 474.5,-105"/>
<text text-anchor="middle" x="420.38" y="-82.33" font-family="Helvetica,sans-Serif" font-size="14.00">Security Protocol</text>
</g>
<!-- security&#45;&gt;compiler -->
<g id="edge13" class="edge">
<title>security&#45;&gt;compiler</title>
<path fill="none" stroke="black" d="M483.78,-105.48C502.76,-111.1 523.35,-117.19 541.31,-122.51"/>
<polygon fill="black" stroke="black" points="540.08,-125.8 550.67,-125.28 542.07,-119.09 540.08,-125.8"/>
</g>
<!-- security&#45;&gt;container -->
<g id="edge14" class="edge">
<title>security&#45;&gt;container</title>
<path fill="none" stroke="black" d="M486.8,-88.88C576.66,-90.42 743.08,-89.56 883,-68 892.52,-66.53 902.44,-64.49 912.17,-62.18"/>
<polygon fill="black" stroke="black" points="912.71,-65.65 921.56,-59.84 911.02,-58.86 912.71,-65.65"/>
</g>
</g>
</svg>
